<svg width="46" height="66" viewBox="0 0 46 66" fill="none" xmlns="http://www.w3.org/2000/svg">
<path d="M46 12.9333H0L4.3125 60.5985L22.9974 66L41.6823 60.5985L46 12.9333Z" fill="#E6A329"/>
<path d="M22.9974 16.8169V61.9609L38.1365 57.5891L41.8196 16.8169H22.9974Z" fill="#F1BF22"/>
<path d="M35.0414 22.6643H11.7642L10.1428 40.5107L10.1765 40.3998H29.9518L29.3069 47.9502L22.9974 49.8009L16.5947 47.9212L16.2114 43.3513H10.3992L11.2281 52.4831L22.9974 55.8887L34.772 52.4831L36.3934 34.5601H15.4059L15.6753 28.5885H30.2367L30.4543 32.0099H36.3183L35.0414 22.6643Z" fill="white"/>
<path d="M23.0026 22.6643H11.7642L10.1428 40.5107L10.1765 40.3998H23.0026V34.5786H16.2244L16.4937 28.6069H23.0026V22.6643ZM16.2244 43.3513H10.3992L11.2281 52.4778L22.9974 55.8782V49.8061L16.5947 47.9212L16.2244 43.3513Z" fill="#EBEBEB"/>
<path d="M18.5243 5.90304H14.4294V8.89944H21.4537V0H18.5243V5.90304ZM31.568 0.04752H24.4297V3.16272C25.3829 4.13424 25.8802 4.60152 27.284 6.00864H24.4297V8.84928H31.568V6.01392L28.7137 3.168H31.568V0.04752Z" fill="white"/>
</svg>
