<svg width="25" height="26" viewBox="0 0 25 26" fill="none" xmlns="http://www.w3.org/2000/svg">
<path d="M3.51562 2.03125H4.29688V2.84375H3.51562V2.03125Z" fill="white"/>
<path d="M1.95312 2.03125H2.73438V2.84375H1.95312V2.03125Z" fill="white"/>
<path d="M5.07812 2.03125H5.85938V2.84375H5.07812V2.03125Z" fill="white"/>
<path d="M6.64062 2.03125H7.42188V2.84375H6.64062V2.03125Z" fill="white"/>
<path d="M3.51562 7.71875H4.29688V8.53125H3.51562V7.71875Z" fill="white"/>
<path d="M5.07812 7.71875H5.85938V8.53125H5.07812V7.71875Z" fill="white"/>
<path d="M6.64062 7.71875H7.42188V8.53125H6.64062V7.71875Z" fill="white"/>
<path d="M3.51562 15.8438H9.76562V16.6562H3.51562V15.8438Z" fill="white"/>
<path d="M19.5312 18.2812C19.7385 18.2812 19.9372 18.3669 20.0837 18.5192C20.2302 18.6716 20.3125 18.8783 20.3125 19.0938H21.0938C21.0925 18.7345 20.9768 18.3859 20.7647 18.1023C20.5527 17.8188 20.2563 17.6162 19.9219 17.5264V16.6562H19.1406V17.5264C18.7728 17.6249 18.4522 17.8596 18.2389 18.1864C18.0257 18.5133 17.9345 18.9099 17.9824 19.3017C18.0304 19.6936 18.2142 20.0538 18.4993 20.3147C18.7845 20.5756 19.1514 20.7192 19.5312 20.7188C19.6858 20.7188 19.8368 20.7664 19.9653 20.8557C20.0938 20.945 20.1939 21.0719 20.253 21.2203C20.3122 21.3688 20.3276 21.5322 20.2975 21.6898C20.2673 21.8474 20.1929 21.9921 20.0837 22.1058C19.9744 22.2194 19.8352 22.2968 19.6837 22.3281C19.5321 22.3595 19.375 22.3434 19.2323 22.2819C19.0895 22.2204 18.9675 22.1163 18.8817 21.9827C18.7958 21.849 18.75 21.6919 18.75 21.5312H17.9688C17.97 21.8905 18.0857 22.2391 18.2978 22.5227C18.5098 22.8062 18.8062 23.0088 19.1406 23.0986V23.9688H19.9219V23.0986C20.2897 23.0001 20.6103 22.7654 20.8236 22.4386C21.0368 22.1117 21.128 21.7151 21.0801 21.3233C21.0321 20.9314 20.8483 20.5712 20.5632 20.3103C20.278 20.0494 19.9111 19.9058 19.5312 19.9062C19.324 19.9062 19.1253 19.8206 18.9788 19.6683C18.8323 19.5159 18.75 19.3092 18.75 19.0938C18.75 18.8783 18.8323 18.6716 18.9788 18.5192C19.1253 18.3669 19.324 18.2812 19.5312 18.2812Z" fill="white"/>
<path d="M22.2656 15.8693V6.66819L24.4949 4.34972C24.5682 4.27354 24.6093 4.17022 24.6093 4.0625C24.6093 3.95478 24.5682 3.85146 24.4949 3.77528L22.9324 2.15028C22.8592 2.07412 22.7598 2.03134 22.6563 2.03134C22.5527 2.03134 22.4533 2.07412 22.3801 2.15028L22.2656 2.26931V2.03125C22.2656 1.60027 22.101 1.18695 21.808 0.882201C21.515 0.577455 21.1175 0.40625 20.7031 0.40625H1.95313C1.53872 0.40625 1.1413 0.577455 0.848271 0.882201C0.555245 1.18695 0.390625 1.60027 0.390625 2.03125V19.0938C0.390625 19.5247 0.555245 19.9381 0.848271 20.2428C1.1413 20.5475 1.53872 20.7188 1.95313 20.7188H14.473C14.5387 21.6157 14.8237 22.4803 15.301 23.2305C15.7783 23.9807 16.432 24.5916 17.2001 25.0052C17.9682 25.4188 18.8252 25.6214 19.6897 25.5938C20.5542 25.5662 21.3976 25.3092 22.1398 24.8473C22.8821 24.3854 23.4985 23.7339 23.9305 22.9547C24.3626 22.1754 24.596 21.2942 24.6086 20.3948C24.6212 19.4953 24.4126 18.6075 24.0025 17.8154C23.5925 17.0234 22.9946 16.3535 22.2656 15.8693ZM21.4844 15.4375C20.7281 15.1082 19.9061 14.9754 19.0895 15.0504C18.2728 15.1254 17.4859 15.4061 16.7969 15.8681V12.3557L21.4844 7.48069V15.4375ZM15.259 17.4688H2.73438V10.1562H14.682L13.9008 10.9688H3.51563V11.7812H13.1195L12.3383 12.5938H3.51563V13.4062H11.6844L11.3496 14.2188H3.51563V15.0312H11.0156L10.5793 16.0899C10.5539 16.1517 10.5435 16.219 10.5492 16.2859C10.5549 16.3528 10.5765 16.4172 10.612 16.4733C10.6475 16.5294 10.6958 16.5755 10.7526 16.6074C10.8094 16.6393 10.8729 16.6561 10.9375 16.6562C10.9904 16.6564 11.0428 16.6452 11.0914 16.6233L13.8258 15.4046C13.8714 15.3842 13.9129 15.355 13.948 15.3185L16.0156 13.1682V16.5104C15.7282 16.7979 15.4743 17.1196 15.259 17.4688ZM13.6719 14.4568L13.443 14.2188L21.4844 5.85569L21.7133 6.09375L13.6719 14.4568ZM12.241 14.1176L12.9879 14.8943L11.6797 15.4781L12.241 14.1176ZM20.7031 5.04319L20.932 5.28125L12.8906 13.6443L12.6617 13.4062L20.7031 5.04319ZM16.0156 8.76931L15.4633 9.34375H8.98438V6.90625H16.0156V8.76931ZM8.20313 9.34375H2.73438V6.90625H8.20313V9.34375ZM22.6563 3.01194L23.6664 4.0625L22.2656 5.51931L21.2555 4.46875L22.6563 3.01194ZM21.4844 2.03125V3.08181L20.932 3.65625H8.98438V1.21875H20.7031C20.9103 1.21875 21.109 1.30435 21.2556 1.45673C21.4021 1.6091 21.4844 1.81576 21.4844 2.03125ZM1.95313 1.21875H8.20313V3.65625H1.17188V2.03125C1.17188 1.81576 1.25419 1.6091 1.4007 1.45673C1.54721 1.30435 1.74592 1.21875 1.95313 1.21875ZM1.17188 19.0938V4.46875H20.1508L16.7969 7.95681V6.5C16.7969 6.39226 16.7557 6.28892 16.6825 6.21274C16.6092 6.13655 16.5099 6.09375 16.4063 6.09375H2.34375C2.24015 6.09375 2.14079 6.13655 2.06754 6.21274C1.99428 6.28892 1.95313 6.39226 1.95313 6.5V17.875C1.95313 17.9827 1.99428 18.0861 2.06754 18.1623C2.14079 18.2384 2.24015 18.2812 2.34375 18.2812H14.8438C14.6371 18.7988 14.5115 19.3474 14.4719 19.9062H1.95313C1.74592 19.9062 1.54721 19.8206 1.4007 19.6683C1.25419 19.5159 1.17188 19.3092 1.17188 19.0938ZM19.5313 24.7812C18.6814 24.7812 17.8507 24.5192 17.144 24.0281C16.4374 23.5371 15.8867 22.8392 15.5615 22.0226C15.2362 21.2061 15.1511 20.3075 15.3169 19.4407C15.4827 18.5738 15.892 17.7776 16.4929 17.1526C17.0938 16.5277 17.8595 16.102 18.693 15.9296C19.5265 15.7572 20.3904 15.8457 21.1756 16.1839C21.9607 16.5221 22.6318 17.0949 23.104 17.8298C23.5761 18.5647 23.8281 19.4287 23.8281 20.3125C23.8268 21.4973 23.3736 22.6331 22.5681 23.4708C21.7626 24.3086 20.6704 24.7799 19.5313 24.7812Z" fill="white"/>
</svg>
